<?xml version="1.0" encoding="UTF-8" standalone="no"?><!DOCTYPE svg PUBLIC "-//W3C//DTD SVG 1.1//EN" "http://www.w3.org/Graphics/SVG/1.1/DTD/svg11.dtd"><svg width="100%" height="100%" viewBox="0 0 180 180" version="1.1" xmlns="http://www.w3.org/2000/svg" xmlns:xlink="http://www.w3.org/1999/xlink" xml:space="preserve" xmlns:serif="http://www.serif.com/" style="fill-rule:evenodd;clip-rule:evenodd;stroke-linejoin:round;stroke-miterlimit:2;"><path d="M68.171,174.467c-4.745,-0.949 -10.44,-1.899 -13.287,-2.848c-17.083,-5.694 -32.269,-18.032 -37.014,-31.319c-4.745,-12.338 -7.593,-44.607 -7.593,-75.927c0,-23.726 3.797,-34.166 14.237,-43.657c11.389,-10.44 19.93,-13.287 45.555,-15.185c19.931,-1.899 56.945,-0 66.436,2.847c11.389,2.847 22.778,10.44 27.523,19.93c5.695,8.542 5.695,14.237 5.695,43.658c-0.949,15.185 -0.949,28.472 -1.899,31.32c-1.898,6.643 -5.694,13.287 -9.49,18.032c-11.389,11.389 -25.625,14.236 -60.741,14.236c-19.931,0 -31.315,-0.043 -38.908,-2.89c0,-0 -0.195,3.204 -0.005,4.789c0.972,8.082 11.389,18.981 30.371,18.981c9.491,0 28.472,-1.898 30.37,-3.796l0.95,-0l-0,6.643c-0,3.797 -0,6.644 -0.95,7.593c-2.847,1.898 -18.981,6.644 -26.574,7.593c-10.44,0.949 -14.236,0.949 -24.676,-0Z" style="fill:none;fill-rule:nonzero;stroke:#000;stroke-width:8.5px;"/><g><path d="M45.099,31.491c-0,1.157 0.581,2.241 1.543,2.882l7.113,4.742c1.14,0.759 2.476,1.166 3.845,1.166l54.757,0c1.37,0 2.705,-0.407 3.845,-1.166l7.113,-4.742c0.962,-0.641 1.543,-1.725 1.543,-2.882l0,-5.081l-79.759,0l-0,5.081Z" style="fill-rule:nonzero;"/><path d="M45.099,116.573l79.759,-0l-0,-5.08c-0,-1.158 -0.581,-2.241 -1.543,-2.883l-7.114,-4.742c-1.14,-0.763 -2.479,-1.166 -3.844,-1.166l-55.806,-0c-0.685,-0 -1.352,0.203 -1.924,0.581l-7.985,5.327c-0.962,0.641 -1.543,1.725 -1.543,2.883l-0,5.08Z" style="fill-rule:nonzero;"/><rect x="55.502" y="47.217" width="58.952" height="6.936" style="fill-rule:nonzero;"/><rect x="55.502" y="61.088" width="58.952" height="6.936" style="fill-rule:nonzero;"/><rect x="55.502" y="74.955" width="58.952" height="6.936" style="fill-rule:nonzero;"/><path d="M55.502,95.762l55.394,-0c5.419,-0.005 10.575,-2.163 14.411,-5.995c3.832,-3.832 5.96,-9.672 5.995,-14.452c0.034,-4.779 -3.74,-9.76 -3.74,-14.227c0,-4.467 2.407,-9.226 3.075,-12.573c1.002,-5.024 -3.868,-4.497 -6.936,-0c-1.509,2.212 -3.074,8.106 -3.074,12.573c-0,4.467 3.737,9.832 3.739,14.227c0.002,4.799 -3.541,13.549 -13.512,13.512l-55.353,-0l0.001,6.935Z" style="fill-rule:nonzero;"/></g></svg>