<?xml version="1.0" encoding="UTF-8" standalone="no"?><!DOCTYPE svg PUBLIC "-//W3C//DTD SVG 1.1//EN" "http://www.w3.org/Graphics/SVG/1.1/DTD/svg11.dtd"><svg width="100%" height="100%" viewBox="0 0 180 180" version="1.1" xmlns="http://www.w3.org/2000/svg" xmlns:xlink="http://www.w3.org/1999/xlink" xml:space="preserve" xmlns:serif="http://www.serif.com/" style="fill-rule:evenodd;clip-rule:evenodd;stroke-linejoin:round;stroke-miterlimit:2;"><path d="M67,179c-5,-1 -11,-2 -14,-3c-18,-6 -34,-19 -39,-33c-5,-13 -8,-47 -8,-80c0,-25 4,-36 15,-46c12,-11 21,-14 48,-16c21,-2 60,0 70,3c12,3 24,11 29,21c6,9 6,15 6,46c-1,16 -1,30 -2,33c-2,7 -6,14 -10,19c-12,12 -27,15 -64,15c-21,0 -32.995,-0.046 -40.995,-3.046c0,0 -0.206,3.376 -0.005,5.046c1.023,8.517 12,20 32,20c10,0 30,-2 32,-4l1,0l0,7c0,4 0,7 -1,8c-3,2 -20,7 -28,8c-11,1 -15,1 -26,0Z" style="fill:url(#_Linear1);fill-rule:nonzero;"/><g><path d="M42.69,28.353c-0,1.219 0.612,2.361 1.626,3.037l7.495,4.997c1.201,0.799 2.608,1.228 4.051,1.228l57.694,0c1.444,0 2.85,-0.429 4.051,-1.228l7.495,-4.997c1.014,-0.676 1.626,-1.818 1.626,-3.037l0,-5.353l-84.038,-0l-0,5.353Z" style="fill:#fff;fill-rule:nonzero;"/><path d="M42.69,118l84.038,0l0,-5.353c0,-1.219 -0.612,-2.361 -1.626,-3.037l-7.495,-4.997c-1.201,-0.804 -2.612,-1.228 -4.051,-1.228l-58.799,-0c-0.722,-0 -1.425,0.214 -2.028,0.612l-8.413,5.613c-1.014,0.676 -1.626,1.818 -1.626,3.037l-0,5.353Z" style="fill:#fff;fill-rule:nonzero;"/><rect x="53.651" y="44.923" width="62.115" height="7.308" style="fill:#fff;fill-rule:nonzero;"/><rect x="53.651" y="59.539" width="62.115" height="7.308" style="fill:#fff;fill-rule:nonzero;"/><rect x="53.651" y="74.149" width="62.115" height="7.308" style="fill:#fff;fill-rule:nonzero;"/><path d="M53.651,96.072l58.366,0c5.709,-0.004 11.143,-2.279 15.184,-6.316c4.038,-4.038 6.28,-10.191 6.317,-15.227c0.036,-5.036 -3.941,-10.284 -3.941,-14.99c0,-4.707 2.536,-9.721 3.24,-13.249c1.056,-5.292 -4.076,-4.738 -7.308,0c-1.59,2.332 -3.239,8.542 -3.239,13.249c-0,4.706 3.938,10.359 3.94,14.99c0.002,5.056 -3.731,14.275 -14.237,14.236l-58.323,0l0.001,7.307Z" style="fill:#fff;fill-rule:nonzero;"/></g><defs><linearGradient id="_Linear1" x1="0" y1="0" x2="1" y2="0" gradientUnits="userSpaceOnUse" gradientTransform="matrix(1.09735e-14,179.211,-179.211,1.09735e-14,88.1038,0.198941)"><stop offset="0" style="stop-color:#777eff;stop-opacity:1"/><stop offset="1" style="stop-color:#6952d7;stop-opacity:1"/></linearGradient></defs></svg>